<svg id="svg1072" clip-rule="evenodd" fill-rule="evenodd" height="512" stroke-linejoin="round" stroke-miterlimit="2" viewBox="0 0 20 20" width="512" xmlns="http://www.w3.org/2000/svg" xmlns:svg="http://www.w3.org/2000/svg"><path id="path1065" d="m5 8.165v-2.165c0-2.209 1.791-4 4-4-.178 0 0 0 0 0 2.209 0 4 1.791 4 4 0 .552-.448 1-1 1s-1-.448-1-1c0-1.105-.895-2-2-2s-2 .895-2 2v2h5.018c1.647 0 2.982 1.335 2.982 2.982v4.036c0 .791-.314 1.55-.873 2.109s-1.318.873-2.109.873h-5.018c-.552 0-1-.448-1-1 0-1.104-.896-2-2-2-.552 0-1-.448-1-1v-3.018c0-1.303.835-2.411 2-2.817zm0 8.835c0 .552-.448 1-1 1s-1-.448-1-1 .448-1 1-1 1 .448 1 1zm3-5v2c0 .552.448 1 1 1s1-.448 1-1v-2c0-.552-.448-1-1-1s-1 .448-1 1zm7-4h1c.552 0 1-.448 1-1s-.448-1-1-1h-1c-.552 0-1 .448-1 1s.448 1 1 1zm.707-3.293 1-1c.39-.39.39-1.024 0-1.414s-1.024-.39-1.414 0l-1 1c-.39.39-.39 1.024 0 1.414s1.024.39 1.414 0z"/></svg>